<svg xmlns="http://www.w3.org/2000/svg" xmlns:xlink="http://www.w3.org/1999/xlink" width="2159" height="752" viewBox="0 0 2159 752">
  <defs>
    <style>
      .cls-1, .cls-2, .cls-3 {
        fill-rule: evenodd;
      }

      .cls-1 {
        filter: url(#filter);
      }

      .cls-2 {
        filter: url(#filter-2);
      }

      .cls-3 {
        fill: #232a50;
      }
    </style>
    <filter id="filter" x="87.844" y="53.406" width="460.468" height="626.469" filterUnits="userSpaceOnUse">
      <feFlood result="flood" flood-color="#232a50"/>
      <feComposite result="composite" operator="in" in2="SourceGraphic"/>
      <feBlend result="blend" in2="SourceGraphic"/>
    </filter>
    <filter id="filter-2" x="256.25" y="74.281" width="472.062" height="615.188" filterUnits="userSpaceOnUse">
      <feFlood result="flood" flood-color="#faaf40"/>
      <feComposite result="composite" operator="in" in2="SourceGraphic"/>
      <feBlend result="blend" in2="SourceGraphic"/>
    </filter>
  </defs>
  <path class="cls-1" d="M266.572,54.344c-64.854,6.891-119.265,62.6-149.452,153.534C89.852,289.667,79.025,485.837,95.894,588.549c12.779,76.209,17.239,89.365,31.973,90.7,13.9,1.256,11.23,10,32.346-107.881,50.3-278.737,122.281-387.634,205.483-310.5C474.982,361.9,498.5,379.5,519.286,376.357c32.274-5.236,38.69-66.958,13.9-132.963C489.843,128.045,370.7,43.476,266.572,54.344Z"/>
  <path class="cls-2" d="M689.5,75.566c-1.323,1.687-6.107,18.435-10.841,37.51-61.53,255.8-121.8,384.991-183.4,393.291-24.1,3.111-44.718-10.311-83.526-53.647-81.1-91.237-115.817-115.351-135.488-93.81-52.418,57.661,3.812,212.226,102.809,282.482,125.533,88.843,240.022,52.918,300.921-94.744,50.559-122.519,66.777-458.767,22.8-471.07C696.947,73.8,690.823,73.879,689.5,75.566Z"/>
  <path id="Nexus_Tax_Filing_copy" data-name="Nexus  Tax Filing copy" class="cls-3" d="M1033.47,109h-45.6V225L911.606,109h-45.6V296.2h45.6V180.737L987.873,296.2h45.6V109Zm173.34,110.4q0-22.4-9.47-39.2a65.114,65.114,0,0,0-26.27-25.867q-16.8-9.063-38.4-9.067-22.14,0-39.2,9.334a65.523,65.523,0,0,0-26.53,26.666q-9.465,17.338-9.47,40.534t9.6,40.533A66.359,66.359,0,0,0,1093.74,289q17.055,9.337,38.93,9.333a78.354,78.354,0,0,0,32.8-6.667,67.344,67.344,0,0,0,24.4-18.4,66.576,66.576,0,0,0,13.47-26.4h-48.53q-6.675,14.4-23.74,14.4a27.27,27.27,0,0,1-19.33-7.333q-7.875-7.331-8.93-21.2h103.2a117.156,117.156,0,0,0,.8-13.333h0Zm-103.74-12q1.86-12.262,9.74-18.934,7.86-6.662,19.33-6.666,12,0,20,6.933t8,18.667h-57.07Zm266.94,88.8-51.2-73.867,49.86-74.933h-49.33l-24,41.066L1266.81,147.4h-51.2l50.4,72.8-49.07,76h49.33l24-41.334,28.54,41.334h51.2Zm118.93-148.8v80.8q0,14.937-7.73,23.2t-21.07,8.266q-13.065,0-20.8-8.266t-7.73-23.2V147.4h-45.34v86.933q0,19.469,7.2,33.867a51.258,51.258,0,0,0,20.27,22q13.065,7.6,30.13,7.6a57.383,57.383,0,0,0,26.27-6,50.1,50.1,0,0,0,18.8-15.867V296.2h45.6V147.4h-45.6Zm138.93,150.933q18.135,0,31.87-5.867t21.07-16.133A39.2,39.2,0,0,0,1688.14,253q-0.27-15.463-8.13-24.667A46.558,46.558,0,0,0,1661.74,215a232.385,232.385,0,0,0-26.93-8.4q-14.4-3.2-21.2-6.4t-6.8-9.6a9.8,9.8,0,0,1,4.26-8.4c2.84-2.042,6.94-3.067,12.27-3.067q9.33,0,15.07,4.533a18.213,18.213,0,0,1,6.8,12.267h42.13q-2.4-22.93-18.53-36.8t-44.14-13.867q-18.93,0-32.66,6.134t-20.8,16.666a40.921,40.921,0,0,0-7.07,23.334q0,15.2,7.73,24.133a46.074,46.074,0,0,0,18.4,13.067,202,202,0,0,0,26.67,7.866q14.925,3.738,21.6,6.8t6.67,9.467a10.209,10.209,0,0,1-4.67,8.667q-4.665,3.338-13.2,3.333-9.345,0-15.73-4.8a17.3,17.3,0,0,1-7.2-12.533h-45.07a48.019,48.019,0,0,0,9.87,26q8.79,11.6,24,18.266,15.195,6.669,34.66,6.667h0ZM855.873,429v36.533h49.6V616.2h45.6V465.537h49.6V429h-144.8ZM1014.54,541.537q0,22.938,8.67,40.4,8.655,17.469,23.6,26.933a60.45,60.45,0,0,0,33.06,9.467q15.735,0,27.6-6.4a49.318,49.318,0,0,0,18.54-16.8V616.2h45.6V467.4h-45.6V488.47a47.191,47.191,0,0,0-18.27-16.8q-11.865-6.4-27.6-6.4a61.59,61.59,0,0,0-33.33,9.334q-14.94,9.338-23.6,26.666t-8.67,40.267h0Zm111.47,0.267q0,17.068-9.47,26.933a31.745,31.745,0,0,1-46.13-.133q-9.48-10-9.47-27.067t9.47-26.8a32.044,32.044,0,0,1,46.13.133q9.465,9.87,9.47,26.934h0Zm217.86,74.4-51.2-73.867,49.87-74.933h-49.33l-24,41.066L1240.67,467.4h-51.2l50.4,72.8-49.06,76h49.33l24-41.334,28.53,41.334h51.2ZM1418.01,429V616.2h45.6V540.47h57.06V505h-57.06V465.537h76.26V429H1418.01Zm168.8,22.933q11.73,0,19.33-7.067a22.881,22.881,0,0,0,7.6-17.466,23.192,23.192,0,0,0-7.6-17.734q-7.605-7.062-19.33-7.066-12,0-19.6,7.066a23.192,23.192,0,0,0-7.6,17.734,22.881,22.881,0,0,0,7.6,17.466q7.59,7.07,19.6,7.067h0ZM1563.87,467.4V616.2h45.6V467.4h-45.6Zm78.67-48.534V616.2h45.6V418.87h-45.6Zm101.6,33.067q11.73,0,19.33-7.067a22.881,22.881,0,0,0,7.6-17.466,23.192,23.192,0,0,0-7.6-17.734q-7.59-7.062-19.33-7.066-12,0-19.6,7.066a23.192,23.192,0,0,0-7.6,17.734,22.881,22.881,0,0,0,7.6,17.466q7.605,7.07,19.6,7.067h0ZM1721.21,467.4V616.2h45.6V467.4h-45.6Zm169.33-1.6a59.346,59.346,0,0,0-26.4,5.733,48.093,48.093,0,0,0-18.67,15.6V467.4h-45.6V616.2h45.6V535.4q0-14.931,7.74-23.2,7.725-8.263,20.8-8.267,13.05,0,20.8,8.267,7.725,8.268,7.73,23.2v80.8h45.33V529.27q0-29.6-15.6-46.533T1890.54,465.8h0Zm145.6-.534a61.59,61.59,0,0,0-33.33,9.334q-14.94,9.338-23.6,26.666t-8.67,40.267q0,22.938,8.67,40.4,8.655,17.469,23.6,26.933a60.918,60.918,0,0,0,33.33,9.467q15.735,0,27.47-6.533a50.62,50.62,0,0,0,18.4-16.934v21.067q0,17.862-8.4,26t-22.54,8.133q-11.73,0-19.73-4.933a21.585,21.585,0,0,1-10.13-13.467h-45.07q2.925,26.663,23.47,42.267,20.52,15.6,53.6,15.6,24.795,0,41.46-9.867a62,62,0,0,0,24.8-26.533q8.13-16.668,8.14-37.2V467.4h-45.6V488.47a47.191,47.191,0,0,0-18.27-16.8q-11.865-6.4-27.6-6.4h0Zm45.87,76.534q0,17.068-9.47,26.933a31.745,31.745,0,0,1-46.13-.133q-9.48-10-9.47-27.067t9.47-26.8a32.044,32.044,0,0,1,46.13.133q9.465,9.87,9.47,26.934h0Z"/>
</svg>
