<svg version="1.2" xmlns="http://www.w3.org/2000/svg" viewBox="0 0 51 51" width="51" height="51"><defs><clipPath clipPathUnits="userSpaceOnUse" id="cp1"><path d="m0.14 0.59h50v50h-50z"/></clipPath></defs><style>.a{fill:#030917}</style><filter id="f0"><feFlood flood-color="#ffffff" flood-opacity="1" /><feBlend mode="normal" in2="SourceGraphic"/><feComposite in2="SourceAlpha" operator="in" /></filter><g clip-path="url(#cp1)" filter="url(#f0)"><path fill-rule="evenodd" class="a" d="m6.7 18.7l9.8-16.9c0.9-1.6 3.3-1.6 4.3 0l3.3 5.8 0.6 0.2q1-0.5 2.2-0.9l0.8-2.4c0.1-0.4 0.4-0.6 0.7-0.6h3.7c0.3 0 0.6 0.2 0.7 0.6l0.8 2.4q1.2 0.4 2.2 0.9l2.3-1.1c0.3-0.2 0.7-0.1 0.9 0.1l2.6 2.6c0.2 0.2 0.3 0.6 0.1 0.9l-1.1 2.3q0.5 1 0.9 2.2l2.4 0.8c0.4 0.1 0.6 0.4 0.6 0.7v3.7c0 0.3-0.2 0.6-0.6 0.7l-2.4 0.8q-0.4 1.2-0.9 2.3l1.1 2.2c0.2 0.3 0.1 0.7-0.1 0.9l-2.6 2.6c-0.2 0.2-0.6 0.3-0.9 0.1l-2.3-1.1q-1 0.6-2.2 0.9l-0.8 2.5c-0.1 0.3-0.4 0.5-0.7 0.5h-3.7c-0.3 0-0.6-0.2-0.7-0.5l-0.8-2.5q-1.2-0.3-2.2-0.9l-2.3 1.1c-0.3 0.2-0.7 0.1-0.9-0.1l-2.6-2.6c-0.2-0.2-0.3-0.6-0.1-0.9l1.1-2.2q-0.3-0.7-0.6-1.3h-10.4c-1.9 0-3.1-2.1-2.2-3.8zm1.3 0.8c-0.3 0.7 0.1 1.5 0.9 1.5h19.5c0.8 0 1.2-0.8 0.9-1.5l-9.8-16.9c-0.4-0.7-1.3-0.7-1.7 0zm8.1-11.7c-0.2-1.4 1-2.5 2.4-2.5h0.2c1.4 0 2.6 1.1 2.4 2.5l-0.8 5.8c-0.1 0.8-0.8 1.3-1.7 1.3-0.8 0-1.5-0.5-1.7-1.3zm1.5-0.2l0.9 5.8c0 0.1 0.3 0.1 0.3 0l0.8-5.8c0.1-0.4-0.4-0.8-0.9-0.8-0.3 0-0.6 0-0.9 0.3-0.2 0.2-0.2 0.4-0.2 0.5zm3.3 10.2c0 1.2-1 2.3-2.3 2.3-1.3 0-2.3-1.1-2.3-2.3 0-1.3 1-2.4 2.3-2.4 1.3 0 2.3 1.1 2.3 2.4zm4.2-8.5l1.3 2.3c1.2-0.6 2.5-1 3.8-1 4.2 0 7.6 3.4 7.6 7.6 0 4.2-3.4 7.6-7.6 7.6-2.5 0-4.8-1.2-6.2-3.3h-3q0.2 0.5 0.4 0.9c0.2 0.2 0.2 0.5 0.1 0.7l-1.2 2.2 1.8 1.8 2.2-1.1c0.2-0.2 0.5-0.2 0.7 0q1.3 0.7 2.7 1.1c0.2 0 0.4 0.2 0.5 0.5l0.8 2.3h2.5l0.7-2.3c0.1-0.3 0.3-0.5 0.6-0.5q1.4-0.4 2.6-1.1c0.2-0.2 0.5-0.2 0.7 0l2.2 1.1 1.8-1.8-1.1-2.2c-0.1-0.2-0.1-0.5 0-0.7q0.8-1.3 1.1-2.7c0.1-0.2 0.3-0.4 0.5-0.5l2.3-0.8v-2.5l-2.3-0.7c-0.2-0.1-0.4-0.3-0.5-0.6q-0.3-1.4-1.1-2.6c-0.1-0.2-0.1-0.5 0-0.7l1.1-2.2-1.8-1.8-2.2 1.1c-0.2 0.1-0.5 0.1-0.7 0q-1.2-0.7-2.6-1.1c-0.3-0.1-0.5-0.3-0.6-0.5l-0.7-2.3h-2.5l-0.8 2.3c-0.1 0.2-0.3 0.4-0.5 0.5q-1.4 0.3-2.6 1zm3.3 13.2h-2.4c1.1 1.1 2.6 1.7 4.2 1.7 3.4 0 6.1-2.7 6.1-6 0-3.4-2.7-6.1-6.1-6.1-1.1 0-2.1 0.3-3 0.8l3.3 5.9c1 1.6-0.2 3.7-2.1 3.7zm-9-4.7c0-0.5-0.3-0.8-0.8-0.8-0.4 0-0.8 0.3-0.8 0.8 0 0.4 0.4 0.7 0.8 0.7 0.5 0 0.8-0.3 0.8-0.7zm27.3 14.1c-0.8 2-4.9 5.5-8.4 8.1-3.5 2.6-8 5.5-10.4 5.9-3.7 0.5-5.5 0.1-6.9-0.3-1.6-0.4-2.6-0.6-6 1 0.3 1.1-0.2 2.3-1.2 2.7l-2.4 1.1c-1.1 0.5-2.4 0.1-3-1.1l-4.8-10.2c-0.5-1.1 0-2.5 1.1-3l2.3-1.1c1.1-0.5 2.5 0 3 1.1l7.9-4.2c1.1-0.6 2.2-0.6 3.3-0.1l6.7 3c0.9 0.4 1.5 1.3 1.5 2.3 0.7 0 1.2-0.1 1.9-0.5 0.4-0.3 1.1-0.8 1.9-1.3 4.7-3.2 9-6.1 10.7-6.1 1 0 1.9 0.1 2.7 1 0.2 0.3 0.4 0.9 0.1 1.7zm-33.2 15.1l-4.8-10.3c-0.2-0.3-0.7-0.5-1-0.3l-2.4 1.1c-0.3 0.1-0.5 0.6-0.3 0.9l4.8 10.3c0.2 0.3 0.6 0.5 1 0.3l2.3-1q0.3-0.2 0.4-0.5 0.1-0.3 0-0.5zm29.9-13.2c1.7-1.8 1.9-2.5 1.9-2.7-0.3-0.3-0.6-0.4-1.3-0.4-0.3 0-1.2 0.2-4.2 2.1-1.9 1.2-4.1 2.6-5.7 3.7-0.8 0.6-1.6 1.1-2 1.4q-1.2 0.7-2.5 0.7h-0.5c-0.6 1.1-1.8 1.8-3 1.3l-4.4-1.6-2 0.3c-0.4 0.1-0.8-0.2-0.9-0.6-0.1-0.4 0.2-0.8 0.6-0.9l2.2-0.3q0.2 0 0.4 0l4.6 1.7c0.5 0.2 1.1-0.3 1.2-0.8l0.1-0.2c0.1-0.5-0.1-1.1-0.6-1.3l-6.7-3c-0.7-0.3-1.3-0.3-2 0l-7.9 4.3 3.6 7.7c3.8-1.7 5.1-1.5 7.1-1 1.3 0.3 2.8 0.7 6.3 0.2 1.8-0.3 6.1-2.8 10.5-6.1 2-1.6 3.9-3.2 5.2-4.5z"/></g></svg>