<svg version="1.2" xmlns="http://www.w3.org/2000/svg" viewBox="0 0 51 51" width="51" height="51"><defs><clipPath clipPathUnits="userSpaceOnUse" id="cp1"><path d="m0.31 0.59h50v50h-50z"/></clipPath></defs><style>.a{fill:#030917}</style><filter id="f0"><feFlood flood-color="#ffffff" flood-opacity="1" /><feBlend mode="normal" in2="SourceGraphic"/><feComposite in2="SourceAlpha" operator="in" /></filter><g clip-path="url(#cp1)" filter="url(#f0)"><path class="a" d="m49.5 29.7l-2.5-2.6c-1.1-1-2.7-1-3.8 0l-13.7 13.8-1.9 6.9-0.5 0.5c-0.3 0.3-0.3 0.9 0 1.2v0.1q0.3 0.2 0.6 0.2 0.4 0 0.7-0.2l0.4-0.5 7-1.9 13.7-13.7c1.1-1.1 1.1-2.8 0-3.8zm-18 11.7l9.2-9.2 3.8 3.8-9.2 9.1zm-0.8 1.8l2.9 2.8-4 1.1zm17.6-10.9l-2.6 2.6-3.7-3.8 2.5-2.5c0.3-0.4 0.9-0.4 1.2-0.1l2.6 2.6c0.3 0.3 0.3 0.9 0 1.2z"/><path class="a" d="m24.4 12.1c-0.5 0-0.9 0.4-0.9 0.9 0 0.5 0.4 0.9 0.9 0.9h16.1c0.5 0 0.9-0.4 0.9-0.9 0-0.5-0.4-0.9-0.9-0.9z"/><path class="a" d="m41.4 25.5c0-0.5-0.4-0.9-0.9-0.9h-16.1c-0.5 0-0.9 0.4-0.9 0.9 0 0.5 0.4 0.9 0.9 0.9h16.1c0.5 0 0.9-0.4 0.9-0.9z"/><path class="a" d="m18.7 7.8c-0.4-0.3-1-0.3-1.3 0.1l-5.6 6.5-3.4-2.5c-0.4-0.3-0.9-0.2-1.2 0.2-0.3 0.3-0.2 0.9 0.2 1.2l4 3.1q0.3 0.1 0.6 0.1c0.2 0 0.5-0.1 0.7-0.3l6.1-7.1c0.3-0.4 0.3-1-0.1-1.3z"/><path class="a" d="m18.7 20.3c-0.4-0.3-1-0.3-1.3 0.1l-5.6 6.5-3.4-2.5c-0.4-0.3-0.9-0.2-1.2 0.2-0.3 0.3-0.2 0.9 0.2 1.2l4 3.1q0.3 0.1 0.6 0.1c0.2 0 0.5-0.1 0.7-0.3l6.1-7.1c0.3-0.4 0.3-1-0.1-1.3z"/><path class="a" d="m17.4 33.8l-5.6 6.5-3.4-2.5c-0.4-0.3-0.9-0.2-1.2 0.1-0.3 0.4-0.2 1 0.2 1.3l4 3.1q0.3 0.1 0.6 0.1c0.2 0 0.5-0.1 0.7-0.3l6.1-7.1c0.3-0.4 0.3-1-0.1-1.3-0.4-0.3-1-0.3-1.3 0.1z"/><path class="a" d="m22.6 47.8h-11.4c-5 0-9.1-4.1-9.1-9.1v-26.5c0-5 4.1-9.1 9.1-9.1h26.5c5 0 9 4.1 9 9.1v10.6c0 0.5 0.4 0.9 0.9 0.9 0.5 0 0.9-0.4 0.9-0.9v-10.6c0-6-4.9-10.8-10.8-10.8h-26.5c-6 0-10.9 4.8-10.9 10.8v26.5c0 6 4.9 10.9 10.9 10.9h11.4c0.5 0 0.9-0.4 0.9-0.9 0-0.5-0.4-0.9-0.9-0.9z"/></g></svg>