<svg version="1.2" xmlns="http://www.w3.org/2000/svg" viewBox="0 0 50 50" width="50" height="50"><defs><clipPath clipPathUnits="userSpaceOnUse" id="cp1"><path d="m0 0h50v50h-50z"/></clipPath></defs><style>.a{fill:#030917}</style><filter id="f0"><feFlood flood-color="#ffffff" flood-opacity="1" /><feBlend mode="normal" in2="SourceGraphic"/><feComposite in2="SourceAlpha" operator="in" /></filter><g clip-path="url(#cp1)" filter="url(#f0)"><path class="a" d="m25 50c-15.1 0-20.2-19.9-20.3-20.1q0-0.1 0-0.2v-21.1q0-0.3 0.2-0.6 0.2-0.2 0.6-0.2c7 0 13.8-2.7 18.9-7.6q0.1-0.1 0.3-0.1 0.1-0.1 0.3-0.1 0.2 0 0.3 0.1 0.2 0 0.3 0.1c5.1 4.9 11.9 7.6 18.9 7.6q0.4 0 0.6 0.2 0.2 0.3 0.2 0.6v21.1q0 0.1 0 0.2c-0.1 0.2-5.2 20.1-20.3 20.1zm-18.7-20.4c0.3 1.4 5.3 18.8 18.7 18.8 13.4 0 18.4-17.4 18.8-18.8v-20.2c-7-0.2-13.6-2.9-18.8-7.5-5.2 4.6-11.8 7.3-18.7 7.5z"/><path class="a" d="m25 45.3c-10.2 0-14.8-13.5-15.6-16.2q0-0.1 0-0.2v-15.6q0-0.3 0.2-0.5 0.2-0.2 0.4-0.3c5.3-0.8 10.3-2.9 14.5-6.1q0.2-0.1 0.5-0.1 0.3 0 0.5 0.1c4.2 3.2 9.2 5.3 14.5 6.1q0.2 0.1 0.4 0.3 0.2 0.2 0.2 0.5v15.6q0 0.1 0 0.2c-0.8 2.7-5.4 16.2-15.6 16.2zm-14.1-16.5c0.9 2.7 5.2 15 14.1 15 9 0 13.2-12.3 14.1-15v-14.9c-5.1-0.9-9.9-2.9-14.1-5.9-4.2 3-9 5-14.1 5.9z"/><path class="a" d="m17.2 30.5q-0.3 0-0.6-0.3-0.2-0.2-0.2-0.5v-9.4q0-0.3 0.2-0.5 0.3-0.3 0.6-0.3 0.3 0 0.5 0.3 0.3 0.2 0.3 0.5v9.4q0 0.3-0.3 0.5-0.2 0.3-0.5 0.3z"/><path class="a" d="m20.3 21.1h-6.2q-0.4 0-0.6-0.2-0.2-0.3-0.2-0.6 0-0.3 0.2-0.5 0.2-0.3 0.6-0.3h6.2q0.3 0 0.6 0.3 0.2 0.2 0.2 0.5 0 0.3-0.2 0.6-0.3 0.2-0.6 0.2z"/><path class="a" d="m21.9 30.5q-0.1 0-0.2-0.1-0.2 0-0.3-0.1-0.1-0.1-0.2-0.2-0.1-0.1-0.1-0.3 0-0.2 0-0.3l2.4-9.4q0-0.2 0.2-0.4 0.3-0.2 0.5-0.2h0.8q0.3 0 0.6 0.3 0.2 0.2 0.2 0.5 0 0.3-0.2 0.6-0.3 0.2-0.6 0.2h-0.2l-2.2 8.8q0 0.2-0.2 0.4-0.3 0.2-0.5 0.2z"/><path class="a" d="m31.3 30.5q-0.3 0-0.4-0.1-0.2-0.1-0.3-0.3-0.1-0.2-0.1-0.4 0-0.2 0.1-0.4l4.6-9.3q0.2-0.3 0.5-0.4 0.3-0.1 0.6 0 0.3 0.2 0.4 0.5 0.1 0.3-0.1 0.6l-4.6 9.3q-0.2 0.2-0.3 0.4-0.2 0.1-0.4 0.1z"/><path class="a" d="m35.9 30.5q-0.2 0-0.4-0.1-0.2-0.2-0.3-0.4l-4.7-9.3q-0.1-0.3 0-0.6 0.1-0.3 0.4-0.5 0.3-0.1 0.6 0 0.3 0.1 0.4 0.4l4.7 9.3q0.1 0.2 0.1 0.4 0 0.2-0.1 0.4-0.1 0.2-0.3 0.3-0.2 0.1-0.4 0.1z"/><path class="a" d="m28.1 30.5q-0.2 0-0.5-0.2-0.2-0.2-0.2-0.4l-2.2-8.8h-0.2q-0.3 0-0.6-0.2-0.2-0.3-0.2-0.6 0-0.3 0.2-0.5 0.3-0.3 0.6-0.3h0.8q0.2 0 0.5 0.2 0.2 0.2 0.2 0.4l2.4 9.4q0 0.1 0 0.3 0 0.2-0.1 0.3-0.1 0.1-0.2 0.2-0.1 0.1-0.3 0.1-0.1 0.1-0.2 0.1z"/><path class="a" d="m26.6 25.8h-3.2q-0.3 0-0.5-0.2-0.2-0.3-0.2-0.6 0-0.3 0.2-0.6 0.2-0.2 0.5-0.2h3.2q0.3 0 0.5 0.2 0.2 0.3 0.2 0.6 0 0.3-0.2 0.6-0.2 0.2-0.5 0.2z"/></g></svg>